{
  "accessors": [
    {
      "bufferView": 1,
      "componentType": 5126,
      "count": 65532,
      "max": [
        1.0377354621887207,
        0.2523890733718872,
        1.4781440496444702
      ],
      "min": [
        -0.5564478635787964,
        -1.0365464687347412,
        -1.774478554725647
      ],
      "type": "VEC3"
    },
    {
      "bufferView": 1,
      "byteOffset": 786384,
      "componentType": 5126,
      "count": 65532,
      "max": [
        0.999999463558197,
        0.9999954104423523,
        0.9999983310699463
      ],
      "min": [
        -0.9999933242797852,
        -0.9999544024467468,
        -0.9999187588691711
      ],
      "type": "VEC3"
    },
    {
      "bufferView": 0,
      "componentType": 5125,
      "count": 307806,
      "type": "SCALAR"
    },
    {
      "bufferView": 1,
      "byteOffset": 1572768,
      "componentType": 5126,
      "count": 65532,
      "max": [
        1.0249356031417847,
        0.3313061594963074,
        1.5543980598449707
      ],
      "min": [
        -0.6731805205345154,
        -1.0399616956710815,
        -1.7753393650054932
      ],
      "type": "VEC3"
    },
    {
      "bufferView": 1,
      "byteOffset": 2359152,
      "componentType": 5126,
      "count": 65532,
      "max": [
        0.9999978542327881,
        0.9999970197677612,
        0.9999996423721313
      ],
      "min": [
        -0.9999926686286926,
        -0.99998939037323,
        -1.0
      ],
      "type": "VEC3"
    },
    {
      "bufferView": 0,
      "byteOffset": 1231224,
      "componentType": 5125,
      "count": 297378,
      "type": "SCALAR"
    },
    {
      "bufferView": 1,
      "byteOffset": 3145536,
      "componentType": 5126,
      "count": 65532,
      "max": [
        1.0428208112716675,
        0.35759156942367554,
        1.5263323783874512
      ],
      "min": [
        -0.606299638748169,
        -1.0442887544631958,
        -1.7914408445358276
      ],
      "type": "VEC3"
    },
    {
      "bufferView": 1,
      "byteOffset": 3931920,
      "componentType": 5126,
      "count": 65532,
      "max": [
        0.9999958276748657,
        0.9999988079071045,
        0.9999850392341614
      ],
      "min": [
        -0.9999968409538269,
        -0.9999956488609314,
        -0.9999895691871643
      ],
      "type": "VEC3"
    },
    {
      "bufferView": 0,
      "byteOffset": 2420736,
      "componentType": 5125,
      "count": 318126,
      "type": "SCALAR"
    },
    {
      "bufferView": 1,
      "byteOffset": 4718304,
      "componentType": 5126,
      "count": 65532,
      "max": [
        1.0321366786956787,
        0.3616188168525696,
        1.476861596107483
      ],
      "min": [
        -0.6597917079925537,
        -1.0407603979110718,
        -1.7976771593093872
      ],
      "type": "VEC3"
    },
    {
      "bufferView": 1,
      "byteOffset": 5504688,
      "componentType": 5126,
      "count": 65532,
      "max": [
        0.9999963641166687,
        0.9999879002571106,
        0.9997785687446594
      ],
      "min": [
        -0.999973714351654,
        -0.9999961256980896,
        -1.0
      ],
      "type": "VEC3"
    },
    {
      "bufferView": 0,
      "byteOffset": 3693240,
      "componentType": 5125,
      "count": 312723,
      "type": "SCALAR"
    },
    {
      "bufferView": 1,
      "byteOffset": 6291072,
      "componentType": 5126,
      "count": 65532,
      "max": [
        1.0345479249954224,
        0.3539767563343048,
        1.5488536357879639
      ],
      "min": [
        -0.665796160697937,
        -1.0459176301956177,
        -1.7917557954788208
      ],
      "type": "VEC3"
    },
    {
      "bufferView": 1,
      "byteOffset": 7077456,
      "componentType": 5126,
      "count": 65532,
      "max": [
        0.9999906420707703,
        0.9999933838844299,
        0.9999945163726807
      ],
      "min": [
        -0.9999831318855286,
        -0.9999999403953552,
        -0.999933123588562
      ],
      "type": "VEC3"
    },
    {
      "bufferView": 0,
      "byteOffset": 4944132,
      "componentType": 5125,
      "count": 314769,
      "type": "SCALAR"
    },
    {
      "bufferView": 1,
      "byteOffset": 7863840,
      "componentType": 5126,
      "count": 65532,
      "max": [
        1.0310858488082886,
        0.34973281621932983,
        1.5513988733291626
      ],
      "min": [
        -0.6757824420928955,
        -1.0460954904556274,
        -1.7976771593093872
      ],
      "type": "VEC3"
    },
    {
      "bufferView": 1,
      "byteOffset": 8650224,
      "componentType": 5126,
      "count": 65532,
      "max": [
        0.999999463558197,
        0.9999988079071045,
        0.9999924898147583
      ],
      "min": [
        -0.9999992847442627,
        -0.9999961256980896,
        -0.9999998211860657
      ],
      "type": "VEC3"
    },
    {
      "bufferView": 0,
      "byteOffset": 6203208,
      "componentType": 5125,
      "count": 312207,
      "type": "SCALAR"
    },
    {
      "bufferView": 1,
      "byteOffset": 9436608,
      "componentType": 5126,
      "count": 65532,
      "max": [
        1.0295910835266113,
        0.36672869324684143,
        1.5613956451416016
      ],
      "min": [
        -0.6219438314437866,
        -1.0455042123794556,
        -1.7771790027618408
      ],
      "type": "VEC3"
    },
    {
      "bufferView": 1,
      "byteOffset": 10222992,
      "componentType": 5126,
      "count": 65532,
      "max": [
        0.9999806880950928,
        0.9999994039535522,
        0.9999987483024597
      ],
      "min": [
        -0.9999969601631165,
        -0.9999904036521912,
        -1.0
      ],
      "type": "VEC3"
    },
    {
      "bufferView": 0,
      "byteOffset": 7452036,
      "componentType": 5125,
      "count": 307743,
      "type": "SCALAR"
    },
    {
      "bufferView": 1,
      "byteOffset": 11009376,
      "componentType": 5126,
      "count": 65532,
      "max": [
        1.039060354232788,
        0.36155229806900024,
        1.5613956451416016
      ],
      "min": [
        -0.6611133813858032,
        -1.0423719882965088,
        -1.7896080017089844
      ],
      "type": "VEC3"
    },
    {
      "bufferView": 1,
      "byteOffset": 11795760,
      "componentType": 5126,
      "count": 65532,
      "max": [
        0.9999889135360718,
        0.9999914765357971,
        0.9999987483024597
      ],
      "min": [
        -0.999998152256012,
        -0.9999974370002747,
        -0.9999997615814209
      ],
      "type": "VEC3"
    },
    {
      "bufferView": 0,
      "byteOffset": 8683008,
      "componentType": 5125,
      "count": 293595,
      "type": "SCALAR"
    },
    {
      "bufferView": 1,
      "byteOffset": 12582144,
      "componentType": 5126,
      "count": 65532,
      "max": [
        1.0390323400497437,
        0.3608222007751465,
        1.5549120903015137
      ],
      "min": [
        -0.6700708270072937,
        -1.041803240776062,
        -1.7964767217636108
      ],
      "type": "VEC3"
    },
    {
      "bufferView": 1,
      "byteOffset": 13368528,
      "componentType": 5126,
      "count": 65532,
      "max": [
        0.9999784827232361,
        0.9999877214431763,
        0.9999991059303284
      ],
      "min": [
        -0.999983012676239,
        -0.9999971389770508,
        -0.9999999403953552
      ],
      "type": "VEC3"
    },
    {
      "bufferView": 0,
      "byteOffset": 9857388,
      "componentType": 5125,
      "count": 253494,
      "type": "SCALAR"
    },
    {
      "bufferView": 1,
      "byteOffset": 14154912,
      "componentType": 5126,
      "count": 65532,
      "max": [
        1.0391767024993896,
        0.36379608511924744,
        1.5551702976226807
      ],
      "min": [
        -0.6734223961830139,
        -1.0459176301956177,
        -1.797187089920044
      ],
      "type": "VEC3"
    },
    {
      "bufferView": 1,
      "byteOffset": 14941296,
      "componentType": 5126,
      "count": 65532,
      "max": [
        0.9999998211860657,
        0.9999988079071045,
        0.9999985098838806
      ],
      "min": [
        -0.999998152256012,
        -0.9999732375144958,
        -0.9999998807907104
      ],
      "type": "VEC3"
    },
    {
      "bufferView": 0,
      "byteOffset": 10871364,
      "componentType": 5125,
      "count": 160365,
      "type": "SCALAR"
    },
    {
      "bufferView": 1,
      "byteOffset": 15727680,
      "componentType": 5126,
      "count": 23360,
      "max": [
        1.0397160053253174,
        0.36548352241516113,
        1.556809425354004
      ],
      "min": [
        -0.6702190637588501,
        -1.0459176301956177,
        -1.7971768379211426
      ],
      "type": "VEC3"
    },
    {
      "bufferView": 1,
      "byteOffset": 16008000,
      "componentType": 5126,
      "count": 23360,
      "max": [
        0.999972403049469,
        0.9999738335609436,
        0.9999948143959045
      ],
      "min": [
        -0.9999933242797852,
        -0.9999706149101257,
        -1.0
      ],
      "type": "VEC3"
    },
    {
      "bufferView": 0,
      "byteOffset": 11512824,
      "componentType": 5125,
      "count": 32931,
      "type": "SCALAR"
    }
  ],
  "asset": {
    "extras": {
      "author": "Deepak C C (https://sketchfab.com/DeepakCC)",
      "license": "CC-BY-4.0 (http://creativecommons.org/licenses/by/4.0/)",
      "source": "https://sketchfab.com/3d-models/the-punishment-a-study-of-farnese-hercules-0b36d63fd4e44ab6b59088438d4da441",
      "title": "The Punishment- A study of Farnese Hercules"
    },
    "generator": "Sketchfab-12.66.0",
    "version": "2.0"
  },
  "bufferViews": [
    {
      "buffer": 0,
      "byteLength": 11644548,
      "name": "floatBufferViews",
      "target": 34963
    },
    {
      "buffer": 0,
      "byteLength": 16288320,
      "byteOffset": 11644548,
      "byteStride": 12,
      "name": "floatBufferViews",
      "target": 34962
    }
  ],
  "buffers": [
    {
      "byteLength": 27932868,
      "uri": "scene.bin"
    }
  ],
  "materials": [
    {
      "doubleSided": true,
      "name": "material_0",
      "pbrMetallicRoughness": {
        "metallicFactor": 0.0,
        "roughnessFactor": 0.6
      }
    }
  ],
  "meshes": [
    {
      "name": "Object_0",
      "primitives": [
        {
          "attributes": {
            "NORMAL": 1,
            "POSITION": 0
          },
          "indices": 2,
          "material": 0,
          "mode": 4
        }
      ]
    },
    {
      "name": "Object_1",
      "primitives": [
        {
          "attributes": {
            "NORMAL": 4,
            "POSITION": 3
          },
          "indices": 5,
          "material": 0,
          "mode": 4
        }
      ]
    },
    {
      "name": "Object_2",
      "primitives": [
        {
          "attributes": {
            "NORMAL": 7,
            "POSITION": 6
          },
          "indices": 8,
          "material": 0,
          "mode": 4
        }
      ]
    },
    {
      "name": "Object_3",
      "primitives": [
        {
          "attributes": {
            "NORMAL": 10,
            "POSITION": 9
          },
          "indices": 11,
          "material": 0,
          "mode": 4
        }
      ]
    },
    {
      "name": "Object_4",
      "primitives": [
        {
          "attributes": {
            "NORMAL": 13,
            "POSITION": 12
          },
          "indices": 14,
          "material": 0,
          "mode": 4
        }
      ]
    },
    {
      "name": "Object_5",
      "primitives": [
        {
          "attributes": {
            "NORMAL": 16,
            "POSITION": 15
          },
          "indices": 17,
          "material": 0,
          "mode": 4
        }
      ]
    },
    {
      "name": "Object_6",
      "primitives": [
        {
          "attributes": {
            "NORMAL": 19,
            "POSITION": 18
          },
          "indices": 20,
          "material": 0,
          "mode": 4
        }
      ]
    },
    {
      "name": "Object_7",
      "primitives": [
        {
          "attributes": {
            "NORMAL": 22,
            "POSITION": 21
          },
          "indices": 23,
          "material": 0,
          "mode": 4
        }
      ]
    },
    {
      "name": "Object_8",
      "primitives": [
        {
          "attributes": {
            "NORMAL": 25,
            "POSITION": 24
          },
          "indices": 26,
          "material": 0,
          "mode": 4
        }
      ]
    },
    {
      "name": "Object_9",
      "primitives": [
        {
          "attributes": {
            "NORMAL": 28,
            "POSITION": 27
          },
          "indices": 29,
          "material": 0,
          "mode": 4
        }
      ]
    },
    {
      "name": "Object_10",
      "primitives": [
        {
          "attributes": {
            "NORMAL": 31,
            "POSITION": 30
          },
          "indices": 32,
          "material": 0,
          "mode": 4
        }
      ]
    }
  ],
  "nodes": [
    {
      "children": [
        1
      ],
      "matrix": [
        1.1695417165756226,
        -1.8807664929180752e-16,
        -4.176140528762307e-32,
        0.0,
        0.0,
        2.5969042840037705e-16,
        -1.1695417165756226,
        0.0,
        1.8807664929180752e-16,
        1.1695417165756226,
        2.5969042840037705e-16,
        0.0,
        2.7755575615628914e-17,
        2.7755575615628914e-17,
        6.162975822039155e-33,
        1.0
      ],
      "name": "Sketchfab_model"
    },
    {
      "children": [
        2,
        3,
        4,
        5,
        6,
        7,
        8,
        9,
        10,
        11,
        12
      ],
      "name": "Merged_Hercu_137.OBJ.cleaner.materialmerger.gles"
    },
    {
      "mesh": 0,
      "name": "Object_2"
    },
    {
      "mesh": 1,
      "name": "Object_3"
    },
    {
      "mesh": 2,
      "name": "Object_4"
    },
    {
      "mesh": 3,
      "name": "Object_5"
    },
    {
      "mesh": 4,
      "name": "Object_6"
    },
    {
      "mesh": 5,
      "name": "Object_7"
    },
    {
      "mesh": 6,
      "name": "Object_8"
    },
    {
      "mesh": 7,
      "name": "Object_9"
    },
    {
      "mesh": 8,
      "name": "Object_10"
    },
    {
      "mesh": 9,
      "name": "Object_11"
    },
    {
      "mesh": 10,
      "name": "Object_12"
    }
  ],
  "scene": 0,
  "scenes": [
    {
      "name": "Sketchfab_Scene",
      "nodes": [
        0
      ]
    }
  ]
}
