<?xml version="1.0" encoding="utf-8"?>
<svg viewBox="114.197 53.76 404.708 354.887" xmlns="http://www.w3.org/2000/svg">
  <path class="st1" d="M 166.042 419.416 C 160.242 293.316 158.342 94.516 148.542 41.116 C 254.842 56.516 412.803 33.092 479.903 45.192 C 459.903 103.892 477.142 400.116 477.342 416.716 C 374.342 396.216 166.542 428.816 166.042 419.416 Z" style="clip-rule: evenodd; fill-rule: evenodd; stroke-width: 15.892px; paint-order: stroke; stroke: rgb(0, 0, 0); fill: rgb(176, 176, 176);" transform="matrix(0, 1, -1, 0, 545.361389, -83.083662)"/>
  <path class="st2" d="M 203.478 383.167 C 188.178 315.067 189.478 60.067 189.878 51.067 C 290.578 69.367 432.578 47.767 450.478 48.067 L 449.978 72.667 C 449.978 92.767 376.378 216.367 376.478 232.967 C 273.478 212.467 212.878 383.067 203.478 383.167 Z" style="clip-rule: evenodd; fill-opacity: 0.4327; fill-rule: evenodd; fill: rgb(15, 15, 15);" transform="matrix(0, 1, -1, 0, 535.68892, -104.458054)"/>
  <path class="st3" d="M 166.41 311.308 C 196.01 198.808 307.11 65.208 352.11 131.308 C 397.11 197.408 174.91 387.308 412.61 362.008" style="fill: none; stroke-linecap: round; stroke-width: 18.75px; fill-rule: nonzero; stroke: rgb(0, 0, 0);" transform="matrix(0, 1, -1, 0, 528.530712, -50.489317)"/>
  <path class="st4" d="M 273.122 217.02 L 320.822 55.92" style="fill: none; stroke: rgb(255, 0, 0); stroke-width: 6.25px;" transform="matrix(0, 1, -1, 0, 433.442021, -160.502014)"/>
  <path class="st4" d="M 437.772 379.67 L 342.272 237.47" style="fill: none; stroke: rgb(255, 0, 0); stroke-width: 6.25px;" transform="matrix(0, 1, -1, 0, 698.591997, -81.451994)"/>
  <path class="st4" d="M 261.672 257.37 L 62.772 258.37" style="fill: none; stroke: rgb(255, 0, 0); stroke-width: 6.25px;" transform="matrix(0, 1, -1, 0, 420.091978, 95.647999)"/>
  <path class="st5" d="M 210.122 117.62 L 221.422 128.92 L 232.722 117.62 L 221.422 106.32 L 210.122 117.62 Z" style="clip-rule: evenodd; fill-rule: evenodd; fill: rgb(206, 242, 189);" transform="matrix(0, 1, -1, 0, 339.042005, -103.802)"/>
  <path class="st6" d="M 387.122 302.62 L 398.422 313.92 L 409.722 302.62 L 398.422 291.32 C 398.422 291.32 387.122 302.62 387.122 302.62 Z" style="clip-rule: evenodd; fill-rule: evenodd; fill: rgb(206, 242, 189);" transform="matrix(0, 1, -1, 0, 701.04201, -95.802003)"/>
  <path class="st6" d="M 152.422 355.42 L 163.722 366.72 L 175.022 355.42 L 163.722 344.12 L 152.422 355.42 Z" style="clip-rule: evenodd; fill-rule: evenodd; stroke-width: 3px; stroke: rgb(0, 0, 0); fill: rgb(206, 242, 189);" transform="matrix(0, 1, -1, 0, 519.141999, 191.697998)"/>
  <path class="st7" d="M 361.022 161.72 L 377.522 177.92 L 394.022 161.72 L 377.522 145.52 C 377.522 145.52 361.022 161.72 361.022 161.72 Z" style="clip-rule: evenodd; fill-rule: evenodd;" transform="matrix(0, 1, -1, 0, 539.241988, -215.801987)"/>
  <path class="st7" d="M 145.122 158.92 L 161.622 175.12 L 178.122 158.92 L 161.622 142.72 C 161.622 142.72 145.122 158.92 145.122 158.92 Z" style="clip-rule: evenodd; fill-rule: evenodd;" transform="matrix(0, 1, -1, 0, 320.541995, -2.702001)"/>
  <path class="st6" d="M 150.422 159.42 L 161.722 170.72 L 173.022 159.42 L 161.722 148.12 C 161.622 148.22 150.422 159.42 150.422 159.42 Z" style="clip-rule: evenodd; fill-rule: evenodd; fill: rgb(206, 242, 189);" transform="matrix(0, 1, -1, 0, 321.142007, -2.302006)"/>
  <path class="st5" d="M 366.222 161.42 L 377.522 172.72 L 388.822 161.42 L 377.522 150.12 C 377.422 150.12 366.222 161.42 366.222 161.42 Z" style="clip-rule: evenodd; fill-rule: evenodd; fill: rgb(206, 242, 189);" transform="matrix(0, 1, -1, 0, 538.941982, -216.101993)"/>
  <path class="st7" d="M 443.322 260.82 L 459.822 277.02 L 476.322 260.82 L 459.822 244.62 L 443.322 260.82 Z" style="clip-rule: evenodd; fill-rule: evenodd;" transform="matrix(0, 1, -1, 0, 720.641996, -199.001985)"/>
  <path class="st6" d="M 448.872 260.87 L 460.172 272.17 L 471.372 260.87 L 460.072 249.57 C 460.072 249.57 448.872 260.87 448.872 260.87 Z" style="clip-rule: evenodd; fill-rule: evenodd; fill: rgb(206, 242, 189);" transform="matrix(0, 1, -1, 0, 720.992027, -199.252007)"/>
  <path class="st7" d="M 302.672 355.07 L 319.172 371.27 L 335.672 355.07 L 319.172 338.97 L 302.672 355.07 Z" style="clip-rule: evenodd; fill-rule: evenodd;" transform="matrix(0, 1, -1, 0, 674.292002, 35.948023)"/>
  <path class="st8" d="M 308.622 354.42 L 319.922 365.72 L 331.222 354.42 L 319.922 343.12 L 308.622 354.42 Z" style="clip-rule: evenodd; fill-rule: evenodd; fill: rgb(206, 242, 189);" transform="matrix(0, 1, -1, 0, 674.342007, 34.497977)"/>
</svg>