<svg xmlns="http://www.w3.org/2000/svg" version="1.1" xmlns:xlink="http://www.w3.org/1999/xlink" xmlns:svgjs="http://svgjs.com/svgjs" width="1920" height="10000" preserveAspectRatio="none" viewBox="0 0 1920 10000"><g mask="url(&quot;#SvgjsMask1010&quot;)" fill="none"><rect width="1920" height="10000" x="0" y="0" fill="rgba(0, 0, 0, 1)"></rect><path d="M302.22 480C291.08 360.63 75.28 456.41 0 336.84C-75.83 216.41 -98.97 69.45 0 0C141.03 -98.97 240 0 480 0C712.5 0 728.42 -21.66 945 0C968.42 2.34 952.6 48 960 48C967.38 48 951.2 2.33 974.55 0C1191.2 -21.67 1207.28 0 1440 0C1625.06 0 1665.32 -65.5 1810.12 0C1905.32 43.07 1893.59 101.76 1920 217.14C1948.53 341.76 1920 348.57 1920 480C1920 647.28 2017.91 731.47 1920 814.55C1777.91 935.11 1673.97 911.9 1440 887.27C1193.97 861.38 1154.84 689.83 960 713.51C855.62 726.2 864.43 828.17 841.56 960C801.4 1191.42 831.6 1200.06 833.94 1440C836.28 1680.06 803.63 1696.07 850.91 1920C866.66 1994.61 914.04 2037.07 960 2037.07C997.5 2037.07 976.12 1969.72 1017.83 1920C1216.12 1683.65 1227.28 1690.75 1440 1464.94C1453.37 1450.75 1455.57 1453.12 1470 1440C1695.57 1234.94 1785.65 1028.57 1920 1028.57C2010.65 1028.57 1920 1234.28 1920 1440C1920 1640 1946.84 1649.84 1920 1840C1912.96 1889.84 1852.24 1874.84 1852.24 1920C1852.24 1994.84 1908.08 1995.54 1920 2080C1941.96 2235.54 1920 2240 1920 2400C1920 2530.91 1972.68 2553.83 1920 2661.82C1855.6 2793.83 1685.85 2777.33 1685.85 2880C1685.85 2973.69 1862.78 2937.24 1920 3054.55C1979.85 3177.24 1920 3207.27 1920 3360C1920 3600 1920 3600 1920 3840C1920 4080 1920 4080 1920 4320C1920 4560 1920 4560 1920 4800C1920 5040 1920 5040 1920 5280C1920 5508.75 1942.9 5523.73 1920 5737.5C1917.19 5763.73 1878.71 5734.78 1868.57 5760C1777.66 5986.03 1701.28 6024.42 1717.89 6240C1726.99 6358.08 1870.99 6310.93 1920 6427.32C1972.05 6550.93 1920 6573.66 1920 6720C1920 6960 1920 6960 1920 7200C1920 7440 1920 7440 1920 7680C1920 7920 1920 7920 1920 8160C1920 8400 1920 8400 1920 8640C1920 8880 1920 8880 1920 9120C1920 9247.35 1972 9374.69 1920 9374.69C1847.2 9374.69 1807.4 9231.83 1670.4 9120C1567.4 9035.92 1556.75 8982.86 1440 8982.86C1313.55 8982.86 1201.5 9007.47 1184 9120C1153.5 9316.04 1238.01 9383.6 1344 9600C1366.01 9644.93 1390.63 9624.82 1440 9642.67C1678.63 9728.97 1763.66 9665.85 1920 9808.3C2003.66 9884.52 2006.75 10030.9 1920 10080C1766.75 10166.75 1680 10080 1440 10080C1200 10080 1200 10080 960 10080C720 10080 720 10080 480 10080C240 10080 120 10200 0 10080C-120 9960 0 9840 0 9600C0 9360 0 9360 0 9120C0 8880 0 8880 0 8640C0 8480 -10.26 8479.02 0 8320C5.23 8239.02 -26.07 8210.82 30.97 8160C213.93 7996.98 273.64 8048.02 480 7892.31C591.71 7808.02 667.12 7775.33 667.12 7680C667.12 7602.67 587.91 7569.53 480 7546.99C254.35 7499.86 140.38 7642.13 0 7540.65C-99.62 7468.64 0 7370.33 0 7200C0 6960 0 6960 0 6720C0 6480 0 6480 0 6240C0 6000 0 6000 0 5760C0 5520 0 5520 0 5280C0 5040 0 5040 0 4800C0 4560 0 4560 0 4320C0 4089.48 -9.44 4085.42 0 3858.95C0.56 3845.42 20 3852.75 20 3840C20 3787.89 2.34 3785.3 0 3729.23C-7.66 3545.3 0 3544.61 0 3360C0 3120 0 3120 0 2880C0 2640 0 2640 0 2400C0 2160 0 2160 0 1920C0 1680 0 1680 0 1440C0 1268.57 -20.28 1264.45 0 1097.14C8.81 1024.45 25.43 1026.87 58.18 960C176.54 718.3 320.17 672.21 302.22 480" stroke="rgba(196, 255, 169, 1)" stroke-width="2"></path><path d="M480 2290.91C413.56 2290.91 393.67 2329.85 342.86 2400C180.33 2624.4 15.08 2711.56 53.33 2880C83.65 3013.5 263.41 2991.89 480 3003.87C716.74 3016.96 723.37 2979 960 2930.15C1023.37 2917.07 1080 2912.28 1080 2880C1080 2843 1012.7 2843.96 960 2791.58C771.24 2603.96 781.73 2592.61 597.07 2400C541.73 2342.27 540.67 2290.91 480 2290.91" stroke="rgba(196, 255, 169, 1)" stroke-width="2"></path><path d="M1440 2285C1336.14 2285 1235.56 2323.12 1235.56 2400C1235.56 2506.08 1333.47 2650.91 1440 2650.91C1553.13 2650.91 1674.89 2503.9 1674.89 2400C1674.89 2320.94 1555.8 2285 1440 2285" stroke="rgba(196, 255, 169, 1)" stroke-width="2"></path><path d="M960 5488.7C877.89 5488.7 795.79 5635.88 795.79 5760C795.79 5847.63 877.89 5912.2 960 5912.2C1042.11 5912.2 1124.21 5847.63 1124.21 5760C1124.21 5635.88 1042.11 5488.7 960 5488.7" stroke="rgba(196, 255, 169, 1)" stroke-width="2"></path><path d="M1440 7985.45C1374.3 7985.45 1294.55 8079.52 1294.55 8160C1294.55 8226.79 1372.4 8280 1440 8280C1496.74 8280 1543.23 8224.56 1543.23 8160C1543.23 8077.29 1498.64 7985.45 1440 7985.45" stroke="rgba(196, 255, 169, 1)" stroke-width="2"></path><path d="M480 341.54C273.77 375.93 193.53 264.02 0 126.32C-46.47 93.25 -50 13.16 0 0C190 -50 240 0 480 0C618.75 0 757.5 -66.04 757.5 0C757.5 104.73 652.52 312.77 480 341.54" stroke="rgba(196, 255, 169, 1)" stroke-width="2"></path><path d="M1048.42 480C974.49 296.14 1032.17 152.23 1156.36 0C1227.96 -87.77 1298.18 0 1440 0C1552.77 0 1598.26 -71.62 1665.54 0C1823.72 168.38 1948.72 299.18 1890.91 480C1835.95 651.9 1662.14 705.45 1440 705.45C1240.9 705.45 1116.31 648.86 1048.42 480" stroke="rgba(196, 255, 169, 1)" stroke-width="2"></path><path d="M240 960C335.78 781.54 365.89 630 480 630C588.75 630 633.68 778.9 685.71 960C750.04 1183.9 739.13 1204.35 712.73 1440C685.36 1684.35 669.19 1693.89 578.18 1920C552.83 1982.98 533.36 1973.88 480 2018.18C244.27 2213.88 134.63 2427.54 0 2400C-105.37 2378.45 0 2160 0 1920C0 1717.5 -18.61 1712.32 0 1515C4.03 1472.32 27.92 1480.14 45.28 1440C147.92 1202.64 118.42 1186.54 240 960" stroke="rgba(196, 255, 169, 1)" stroke-width="2"></path><path d="M1657.5 1440C1791.19 1322.8 1841.63 1200 1920 1200C1972.88 1200 1920 1320 1920 1440C1920 1556.66 1963.79 1572.72 1920 1673.33C1859.32 1812.72 1824.27 1805.22 1711.06 1920C1584.27 2048.55 1576.24 2160 1440 2160C1301.91 2160 1162.41 2047.64 1162.41 1920C1162.41 1778.03 1293.78 1762.55 1440 1620.78C1541.32 1522.55 1551.19 1533.19 1657.5 1440" stroke="rgba(196, 255, 169, 1)" stroke-width="2"></path><path d="M889.76 2400C889.76 2364.21 927.27 2329.76 960 2329.76C989.06 2329.76 1013.33 2364.4 1013.33 2400C1013.33 2437.41 989.21 2475.79 960 2475.79C927.43 2475.79 889.76 2437.23 889.76 2400" stroke="rgba(196, 255, 169, 1)" stroke-width="2"></path><path d="M1720 3360C1774.9 3274.73 1848.57 3272.73 1920 3272.73C1948.57 3272.73 1920 3316.36 1920 3360C1920 3600 1920 3600 1920 3840C1920 4080 1920 4080 1920 4320C1920 4525.72 1998.52 4731.43 1920 4731.43C1814.69 4731.43 1650 4558.36 1552.34 4320C1467.39 4112.64 1514.04 4073.29 1554.78 3840C1597.87 3593.29 1592.29 3558.37 1720 3360" stroke="rgba(196, 255, 169, 1)" stroke-width="2"></path><path d="M1636.72 5280C1636.72 5088.96 1842.33 4868.57 1920 4868.57C1983.97 4868.57 1920 5074.28 1920 5280C1920 5415 1977.83 5550 1920 5550C1836.19 5550 1636.72 5429.67 1636.72 5280" stroke="rgba(196, 255, 169, 1)" stroke-width="2"></path><path d="M1440 7767.27C1292.17 7767.27 1112.73 7978.92 1112.73 8160C1112.73 8310.28 1287.91 8430 1440 8430C1567.67 8430 1672.26 8305.27 1672.26 8160C1672.26 7973.9 1571.94 7767.27 1440 7767.27" stroke="rgba(196, 255, 169, 1)" stroke-width="2"></path><path d="M1200 10080C1200 10032.98 1305.9 9917.76 1440 9909.33C1665.9 9895.12 1700.07 9956.52 1920 10034.72C1940.07 10041.86 1940.69 10078.05 1920 10080C1700.69 10100.69 1680 10080 1440 10080C1320 10080 1200 10118.32 1200 10080" stroke="rgba(196, 255, 169, 1)" stroke-width="2"></path><path d="M480 110.77C362.89 110.77 218.18 28.83 218.18 0C218.18 -26.55 349.09 0 480 0C525 0 570 -21.42 570 0C570 33.97 538.8 110.77 480 110.77" stroke="rgba(196, 255, 169, 1)" stroke-width="2"></path><path d="M1364.21 480C1321.14 258.48 1306.91 198.05 1338.18 0C1344.8 -41.95 1389.09 0 1440 0C1480.48 0 1514.66 -34.64 1520.96 0C1558.3 205.36 1560.91 262.41 1527.27 480C1520.43 524.23 1482.99 523.64 1440 523.64C1401.46 523.64 1372.05 520.3 1364.21 480" stroke="rgba(196, 255, 169, 1)" stroke-width="2"></path><path d="M421.82 960C438.94 913.98 452.34 880 480 880C506.36 880 520.78 914.35 529.87 960C576.54 1194.35 606.83 1205.74 591.52 1440C581.89 1587.28 554.2 1723.08 480 1723.08C394.29 1723.08 283.67 1596.95 271.7 1440C254.58 1215.41 334.79 1193.98 421.82 960" stroke="rgba(196, 255, 169, 1)" stroke-width="2"></path><path d="M1845 1440C1845 1405.98 1897.61 1371.43 1920 1371.43C1935.11 1371.43 1920 1405.72 1920 1440C1920 1473.34 1934.97 1506.67 1920 1506.67C1897.47 1506.67 1845 1473.6 1845 1440" stroke="rgba(196, 255, 169, 1)" stroke-width="2"></path><path d="M0 1890C17.89 1890 53.33 1903.99 53.33 1920C53.33 1936.77 17.15 1955.56 0 1955.56C-9.51 1955.56 0 1937.78 0 1920C0 1905 -8.77 1890 0 1890" stroke="rgba(196, 255, 169, 1)" stroke-width="2"></path><path d="M1306.99 1920C1306.99 1851.97 1373.92 1776.62 1440 1776.62C1505.37 1776.62 1569.88 1851.89 1569.88 1920C1569.88 1981.08 1505.28 2035 1440 2035C1373.83 2035 1306.99 1981.16 1306.99 1920" stroke="rgba(196, 255, 169, 1)" stroke-width="2"></path><path d="M617.14 3360C617.14 3314.85 796.31 3288.36 960 3288.36C1016.72 3288.36 1057.96 3318.79 1057.96 3360C1057.96 3410.43 1024.3 3471.63 960 3471.63C803.89 3471.63 617.14 3406.48 617.14 3360" stroke="rgba(196, 255, 169, 1)" stroke-width="2"></path><path d="M353.33 3840C353.33 3641.34 406.03 3443.48 480 3443.48C557.05 3443.48 655.38 3641.03 655.38 3840C655.38 4046.56 556.94 4254.55 480 4254.55C405.91 4254.55 353.33 4046.87 353.33 3840" stroke="rgba(196, 255, 169, 1)" stroke-width="2"></path><path d="M1815.65 3840C1833.22 3734.9 1892.23 3648 1920 3648C1944.4 3648 1920 3744 1920 3840C1920 4080 1920 4080 1920 4320C1920 4382.85 1943.99 4445.71 1920 4445.71C1887.82 4445.71 1821.22 4398.71 1807.66 4320C1769.05 4095.86 1777.05 4070.9 1815.65 3840" stroke="rgba(196, 255, 169, 1)" stroke-width="2"></path><path d="M0 4174.74C160.39 4174.74 424.62 4236.21 424.62 4320C424.62 4407.41 149.4 4517.14 0 4517.14C-62.91 4517.14 0 4418.57 0 4320C0 4247.37 -51.92 4174.74 0 4174.74" stroke="rgba(196, 255, 169, 1)" stroke-width="2"></path><path d="M368.37 4800C368.37 4625.14 430.94 4430.77 480 4430.77C528.13 4430.77 562.76 4621.29 562.76 4800C562.76 4880.91 526.47 4950 480 4950C429.28 4950 368.37 4884.76 368.37 4800" stroke="rgba(196, 255, 169, 1)" stroke-width="2"></path><path d="M1833.44 5280C1833.44 5221.63 1896.27 5154.29 1920 5154.29C1939.55 5154.29 1920 5217.15 1920 5280C1920 5321.25 1937.67 5362.5 1920 5362.5C1894.39 5362.5 1833.44 5325.73 1833.44 5280" stroke="rgba(196, 255, 169, 1)" stroke-width="2"></path><path d="M232.26 6240C232.26 6148.42 360.82 6052.68 480 6052.68C585.74 6052.68 682.11 6148.11 682.11 6240C682.11 6329.05 585.36 6414.55 480 6414.55C360.43 6414.55 232.26 6329.36 232.26 6240" stroke="rgba(196, 255, 169, 1)" stroke-width="2"></path><path d="M843.24 6720C843.24 6637.47 894.12 6580.65 960 6580.65C1042.5 6580.65 1140 6626.52 1140 6720C1140 6912.19 1035.85 7152 960 7152C887.47 7152 843.24 6923.15 843.24 6720" stroke="rgba(196, 255, 169, 1)" stroke-width="2"></path><path d="M353.68 7200C353.68 7148.21 400.59 7073.68 480 7073.68C681.93 7073.68 916.36 7153.24 916.36 7200C916.36 7245.31 693.85 7257.83 480 7257.83C412.51 7257.83 353.68 7240.28 353.68 7200" stroke="rgba(196, 255, 169, 1)" stroke-width="2"></path><path d="M1801.29 8160C1907.65 7972.85 1889.76 7735.38 1920 7735.38C1949.12 7735.38 1920 7947.69 1920 8160C1920 8400 1920 8400 1920 8640C1920 8705.46 1970.96 8764.84 1920 8770.91C1730.96 8793.41 1680.84 8703.95 1440 8697.14C1200.84 8690.38 1191.32 8763.45 960 8743.78C855.32 8734.88 768 8718.19 768 8640C768 8506.3 823.57 8332.18 960 8320C1159.57 8302.18 1231.23 8619.7 1440 8580C1651.88 8539.7 1667.65 8395.16 1801.29 8160" stroke="rgba(196, 255, 169, 1)" stroke-width="2"></path><path d="M0 9008C31.53 9008 108.39 9053.42 108.39 9120C108.39 9243.82 28.12 9388.8 0 9388.8C-26.08 9388.8 0 9254.4 0 9120C0 9064 -22.66 9008 0 9008" stroke="rgba(196, 255, 169, 1)" stroke-width="2"></path><path d="M184.62 10080C184.62 10046.62 352.55 9952 480 9952C539.42 9952 558.37 10037.95 558.37 10080C558.37 10101.95 519.18 10080 480 10080C332.31 10080 184.62 10110.62 184.62 10080" stroke="rgba(196, 255, 169, 1)" stroke-width="2"></path></g><defs><mask id="SvgjsMask1010"><rect width="1920" height="10000" fill="#ffffff"></rect></mask></defs></svg>